<svg xmlns="http://www.w3.org/2000/svg" viewBox="0 0 177.91 127.26"><g id="Layer_2" data-name="Layer 2"><g id="Layer_1-2" data-name="Layer 1"><path d="M12.53,39a3.25,3.25,0,0,0,1.69-.46,1.12,1.12,0,0,0,.32-.83V10.8H2.16a1,1,0,0,0-.86.4,3.71,3.71,0,0,0-.44,1.62H0V0H.86A3.71,3.71,0,0,0,1.3,1.62a1,1,0,0,0,.86.4H37.73a1,1,0,0,0,.86-.4A3.74,3.74,0,0,0,39,0h.87V12.82H39a3.74,3.74,0,0,0-.43-1.62,1,1,0,0,0-.86-.4H25.34V37.73a1.13,1.13,0,0,0,.33.83,3.22,3.22,0,0,0,1.69.46v.87H12.53Z"/><path d="M84.31,37.73a1.13,1.13,0,0,0,.33.83,3.18,3.18,0,0,0,1.69.46v.87H71.5V39a3.25,3.25,0,0,0,1.69-.46,1.16,1.16,0,0,0,.32-.83V24.41H54.79V37.73a1.13,1.13,0,0,0,.33.83,3.18,3.18,0,0,0,1.69.46v.87H42V39a3.25,3.25,0,0,0,1.69-.46,1.16,1.16,0,0,0,.32-.83V4.18a1.13,1.13,0,0,0-.32-.83A3.23,3.23,0,0,0,42,2.88V2H56.81v.86a3.16,3.16,0,0,0-1.69.47,1.1,1.1,0,0,0-.33.83V15.62H73.51V4.18a1.13,1.13,0,0,0-.32-.83,3.23,3.23,0,0,0-1.69-.47V2H86.33v.86a3.16,3.16,0,0,0-1.69.47,1.1,1.1,0,0,0-.33.83Z"/><path d="M93,39a3.22,3.22,0,0,0,1.69-.46,1.13,1.13,0,0,0,.33-.83V4.18a1.1,1.1,0,0,0-.33-.83A3.19,3.19,0,0,0,93,2.88V2h14.83v.86a3.23,3.23,0,0,0-1.69.47,1.13,1.13,0,0,0-.32.83V37.73a1.16,1.16,0,0,0,.32.83,3.25,3.25,0,0,0,1.69.46v.87H93Z"/><path d="M117.5,25.27a5.7,5.7,0,0,0-.14,1.51c0,.48.44,1,1.33,1.62a16.64,16.64,0,0,0,3.46,1.7A31.87,31.87,0,0,0,127,31.43a28.51,28.51,0,0,0,5.54.54q5.4,0,7.92-1.26A3.94,3.94,0,0,0,143,27.07c0-.86-.73-1.47-2.2-1.83a40.39,40.39,0,0,0-5.5-.87q-3.31-.32-7.13-.72A35.44,35.44,0,0,1,121,22.21a14.64,14.64,0,0,1-5.51-3,7,7,0,0,1-2.19-5.44,10,10,0,0,1,1.26-5A11.58,11.58,0,0,1,118.11,5a17.94,17.94,0,0,1,5.51-2.49,26.87,26.87,0,0,1,7.2-.9,47.12,47.12,0,0,1,6.84.47c2.11.31,4,.66,5.62,1.05s3,.73,4.1,1a10.34,10.34,0,0,0,2.38.47,1.85,1.85,0,0,0,1.15-.33,4.3,4.3,0,0,0,.79-.75l.79.29-5,10-.87-.43V12.6c0-.43-.47-.87-1.4-1.33A18.37,18.37,0,0,0,141.69,10a44.36,44.36,0,0,0-4.82-.9,38.69,38.69,0,0,0-5.18-.36q-4.68,0-6.56,1.08c-1.24.72-1.87,1.49-1.87,2.31a2,2,0,0,0,1.3,1.83,11.64,11.64,0,0,0,3.38.9c1.39.2,3,.35,4.75.47s3.6.3,5.48.54a50.8,50.8,0,0,1,5.47,1,16.82,16.82,0,0,1,4.75,1.91,10.09,10.09,0,0,1,3.38,3.31,9.44,9.44,0,0,1,1.3,5.15,11.93,11.93,0,0,1-1,4.68,10.57,10.57,0,0,1-3.31,4.14A17.75,17.75,0,0,1,142.52,39a37.35,37.35,0,0,1-9.75,1.08,60.59,60.59,0,0,1-7.82-.43,45.4,45.4,0,0,1-5.58-1c-1.53-.41-2.74-.78-3.63-1.12a6.5,6.5,0,0,0-2-.5,1.08,1.08,0,0,0-.76.29c-.21.19-.44.4-.68.64l-.87-.21,5.33-12.82Z"/><path d="M4.61,82a3.25,3.25,0,0,0,1.69-.46,1.12,1.12,0,0,0,.32-.83V47.18a1.09,1.09,0,0,0-.32-.83,3.23,3.23,0,0,0-1.69-.47V45H19.44v.86a3.19,3.19,0,0,0-1.69.47,1.1,1.1,0,0,0-.33.83V80.73a1.13,1.13,0,0,0,.33.83,3.22,3.22,0,0,0,1.69.46v.87H4.61Z"/><path d="M29.16,68.27A5.3,5.3,0,0,0,29,69.78c0,.48.44,1,1.33,1.62a16.53,16.53,0,0,0,3.45,1.7,32.52,32.52,0,0,0,4.86,1.33,28.61,28.61,0,0,0,5.55.54q5.4,0,7.92-1.26a3.94,3.94,0,0,0,2.52-3.64c0-.86-.73-1.47-2.2-1.83a40.3,40.3,0,0,0-5.51-.87c-2.21-.21-4.58-.45-7.13-.72a35.34,35.34,0,0,1-7.12-1.44,14.56,14.56,0,0,1-5.51-3A6.93,6.93,0,0,1,25,56.75a10,10,0,0,1,1.26-5A11.62,11.62,0,0,1,29.77,48a17.83,17.83,0,0,1,5.51-2.49,26.87,26.87,0,0,1,7.2-.9,47.12,47.12,0,0,1,6.84.47q3.16.47,5.62,1.05c1.63.38,3,.73,4.1,1a10.15,10.15,0,0,0,2.38.47,1.87,1.87,0,0,0,1.15-.33,4.64,4.64,0,0,0,.79-.75l.79.29-5,10-.86-.43V55.6c0-.43-.47-.87-1.4-1.33A18.37,18.37,0,0,0,53.35,53a44.83,44.83,0,0,0-4.82-.9,38.84,38.84,0,0,0-5.19-.36q-4.68,0-6.55,1.08c-1.25.72-1.87,1.49-1.87,2.31A2,2,0,0,0,36.22,57a11.64,11.64,0,0,0,3.38.9c1.39.2,3,.35,4.75.47s3.6.3,5.47.54a50.53,50.53,0,0,1,5.48,1,16.94,16.94,0,0,1,4.75,1.91,10.09,10.09,0,0,1,3.38,3.31,9.44,9.44,0,0,1,1.3,5.15,12.11,12.11,0,0,1-1,4.68,10.6,10.6,0,0,1-3.32,4.14A17.78,17.78,0,0,1,54.18,82a37.43,37.43,0,0,1-9.76,1.08,60.43,60.43,0,0,1-7.81-.43,45.4,45.4,0,0,1-5.58-1,37.07,37.07,0,0,1-3.63-1.12,6.5,6.5,0,0,0-2-.5,1.08,1.08,0,0,0-.76.29c-.22.19-.45.4-.68.64l-.87-.21,5.33-12.82Z"/><path d="M118.44,82a3.25,3.25,0,0,0,1.69-.46,1.12,1.12,0,0,0,.32-.83V54.23l-.14-.14L107.49,82,94.82,53.8h-.14V80.73a1.16,1.16,0,0,0,.32.83,3.25,3.25,0,0,0,1.69.46v.87H84V82a3.22,3.22,0,0,0,1.69-.46,1.13,1.13,0,0,0,.33-.83V47.18a1.1,1.1,0,0,0-.33-.83A3.19,3.19,0,0,0,84,45.88V45h18.79v.86c-1.15,0-1.72.48-1.72,1.3a12,12,0,0,0,.43,1.15c.29.72.66,1.61,1.11,2.66s1,2.2,1.52,3.42,1.08,2.4,1.58,3.53,1,2.12,1.33,3,.65,1.44.79,1.73c.82-1.83,1.66-3.6,2.52-5.33S112,54,112.71,52.58s1.26-2.64,1.7-3.6a6.68,6.68,0,0,0,.64-1.8c0-.82-.57-1.25-1.72-1.3V45h19.51v.86a3.19,3.19,0,0,0-1.69.47,1.1,1.1,0,0,0-.33.83V80.73a1.13,1.13,0,0,0,.33.83,3.22,3.22,0,0,0,1.69.46v.87h-14.4Z"/><path d="M177.91,45v.86a1.28,1.28,0,0,0-1,.4,6.22,6.22,0,0,0-.76.9L162.36,66.69v14a1.16,1.16,0,0,0,.32.83,3.25,3.25,0,0,0,1.69.46v.87H149.54V82a3.22,3.22,0,0,0,1.69-.46,1.13,1.13,0,0,0,.33-.83V68.06L137.81,48.33a24.66,24.66,0,0,0-1.52-2,1.1,1.1,0,0,0-.86-.4V45h15.84v.86a5.3,5.3,0,0,0-1.22.14.68.68,0,0,0-.58.72,5.9,5.9,0,0,0,.94,1.73c.62,1,1.35,2.07,2.19,3.31s1.72,2.52,2.63,3.82,1.66,2.4,2.23,3.31c.15-.24.46-.68.94-1.33s1-1.4,1.62-2.27,1.25-1.77,1.94-2.73,1.32-1.85,1.87-2.67,1-1.52,1.41-2.12a4.25,4.25,0,0,0,.57-1,.68.68,0,0,0-.54-.72,4.32,4.32,0,0,0-1-.14V45Z"/><path d="M5.54,90.18a1.09,1.09,0,0,0-.32-.83,3.23,3.23,0,0,0-1.69-.47V88H31a23.8,23.8,0,0,1,5.4.57,13.07,13.07,0,0,1,4.25,1.77,8.35,8.35,0,0,1,2.81,3.09,9.7,9.7,0,0,1,1,4.57,7.11,7.11,0,0,1-1.94,5.22,9.58,9.58,0,0,1-5,2.63V106a14.69,14.69,0,0,1,6,3.09,7.77,7.77,0,0,1,2.34,6.12,10.44,10.44,0,0,1-.82,4.11,8.88,8.88,0,0,1-2.6,3.38,13.19,13.19,0,0,1-4.53,2.3,22.16,22.16,0,0,1-6.59.87H3.53V125a3.25,3.25,0,0,0,1.69-.46,1.12,1.12,0,0,0,.32-.83Zm20.6,12.09c1.53,0,2.8,0,3.81-.11a7.81,7.81,0,0,0,2.38-.46,2.4,2.4,0,0,0,1.22-1,4.34,4.34,0,0,0,0-3.46,2.4,2.4,0,0,0-1.22-1A7.81,7.81,0,0,0,30,95.76c-1-.08-2.28-.11-3.81-.11h-9.8v6.62Zm2.44,16c2.6,0,4.42-.33,5.48-1a4.33,4.33,0,0,0,0-6.69c-1.06-.65-2.88-1-5.48-1H16.34v8.64Z"/><path d="M50.76,125a3.25,3.25,0,0,0,1.69-.46,1.12,1.12,0,0,0,.32-.83V90.18a1.09,1.09,0,0,0-.32-.83,3.23,3.23,0,0,0-1.69-.47V88H65.59v.86a3.19,3.19,0,0,0-1.69.47,1.1,1.1,0,0,0-.33.83v33.55a1.13,1.13,0,0,0,.33.83,3.22,3.22,0,0,0,1.69.46v.87H50.76Z"/><path d="M100.58,125a3.83,3.83,0,0,0,1-.1c.24-.08.36-.35.36-.83a4.75,4.75,0,0,0-.65-1.3c-.43-.72-1-1.61-1.65-2.66s-1.42-2.19-2.24-3.39-1.58-2.35-2.3-3.45-1.37-2.06-1.94-2.88-1-1.37-1.16-1.66L85,115.09v8.64a1.16,1.16,0,0,0,.32.83A3.25,3.25,0,0,0,87,125v.87H72.14V125a3.22,3.22,0,0,0,1.69-.46,1.13,1.13,0,0,0,.33-.83V90.18a1.1,1.1,0,0,0-.33-.83,3.19,3.19,0,0,0-1.69-.47V88H87v.86a3.23,3.23,0,0,0-1.69.47,1.13,1.13,0,0,0-.32.83v13h.5q2.16-2.1,4.65-4.32c1.65-1.49,3.18-2.87,4.57-4.14s2.55-2.36,3.49-3.24,1.4-1.43,1.4-1.62c0-.44-.12-.69-.36-.76a6.41,6.41,0,0,0-.93-.18V88h18.29v.86a6.05,6.05,0,0,0-1.19.22,2.83,2.83,0,0,0-.87.43c-.26.19-.55.42-.86.68l-1.12,1-12.45,10.73,14.69,22a2.25,2.25,0,0,0,1.08,1,4.31,4.31,0,0,0,1.22.14v.87H100.58Z"/><path d="M146.66,112.06a2.27,2.27,0,0,0-.61-1.18,2.1,2.1,0,0,0-1.55-.47H131.11v6.69h23.11a1,1,0,0,0,.86-.39,4.15,4.15,0,0,0,.44-1.77h.86v12.32h-.86a1.88,1.88,0,0,0-.44-1.16,1.45,1.45,0,0,0-.86-.21H118.29V125a3.22,3.22,0,0,0,1.69-.46,1.13,1.13,0,0,0,.33-.83V90.18a1.1,1.1,0,0,0-.33-.83,3.19,3.19,0,0,0-1.69-.47V88h35.93a1,1,0,0,0,.86-.4,3.71,3.71,0,0,0,.44-1.62h.86V98.53h-.86a3.71,3.71,0,0,0-.44-1.62,1,1,0,0,0-.86-.4H131.11v6H144.5a2.14,2.14,0,0,0,1.55-.47,2.3,2.3,0,0,0,.61-1.19h.86v11.23Z"/></g></g></svg>